<svg id="Layer_1" height="512" viewBox="0 0 64 64" width="512" xmlns="http://www.w3.org/2000/svg" data-name="Layer 1"><path d="m57 40v21h-50v-21" fill="#e1eff9"/><path d="m24 42h16v4h-16z" fill="#9fcaed"/><circle cx="32" cy="18" fill="#f2ea8c" r="15"/><circle cx="32" cy="18" fill="#f4edb3" r="12"/><circle cx="32" cy="18" fill="#f7f2d5" r="10"/><circle cx="32" cy="18" fill="#fcfaf0" r="8"/><path d="m5 30h54v10h-54z" fill="#9fcaed"/><g fill="#ddd"><path d="m8 9h2v9h-2z"/><path d="m8 20h2v8h-2z"/><path d="m12 14h2v14h-2z"/><path d="m12 4h2v8h-2z"/><path d="m54 9h2v9h-2z"/><path d="m54 20h2v8h-2z"/><path d="m50 14h2v14h-2z"/><path d="m50 4h2v8h-2z"/></g><path d="m37 18a5 5 0 0 0 -2-8.9v-2.1h-2v2h-2v-2h-2v2h-4v2h2v6h-2v2h2v6h-2v2h4v2h2v-2h2v2h2v-2.1a5 5 0 0 0 2-8.9zm-8-7h5a3 3 0 0 1 0 6h-5zm5 14h-5v-6h5a3 3 0 0 1 0 6z" fill="#e5a653"/></svg>