<svg height="512" viewBox="0 0 58 58" width="512" xmlns="http://www.w3.org/2000/svg"><g id="Page-1" fill="none" fill-rule="evenodd"><g id="052---File-Storage" fill-rule="nonzero"><path id="Shape" d="m52 17c-.5522847 0-1 .4477153-1 1v3c0 .5522847-.4477153 1-1 1h-20v-4c0-.5522847-.4477153-1-1-1s-1 .4477153-1 1v4h-20c-.55228475 0-1-.4477153-1-1v-3c0-.5522847-.44771525-1-1-1s-1 .4477153-1 1v3c0 1.6568542 1.34314575 3 3 3h20v3c0 .5522847.4477153 1 1 1s1-.4477153 1-1v-3h20c1.6568542 0 3-1.3431458 3-3v-3c0-.5522847-.4477153-1-1-1z" fill="#285680"/><path id="Shape" d="m13.9 8c.0669882.12619449.1013637.26713431.1.41v8.59c0 .5522847-.4477153 1-1 1h-12c-.55228475 0-1-.4477153-1-1v-16c0-.55228475.44771525-1 1-1h4.59c.14286569-.00136375.28380551.03301182.41.1z" fill="#67b9cc"/><path id="Shape" d="m13.9 8h-6.9c-.55228475 0-1-.44771525-1-1v-6.9c.10921777.04171731.20813893.10652773.29.19l7.42 7.42c.0834723.08186107.1482827.18078223.19.29z" fill="#2fa8cc"/><path id="Shape" d="m35.9 8c.0669882.12619449.1013637.26713431.1.41v8.59c0 .5522847-.4477153 1-1 1h-12c-.5522847 0-1-.4477153-1-1v-16c0-.55228475.4477153-1 1-1h4.59c.1428657-.00136375.2838055.03301182.41.1z" fill="#67b9cc"/><path id="Shape" d="m35.9 8h-6.9c-.5522847 0-1-.44771525-1-1v-6.9c.1092178.04171731.2081389.10652773.29.19l7.42 7.42c.0834723.08186107.1482827.18078223.19.29z" fill="#2fa8cc"/><path id="Shape" d="m57.9 8c.0669882.12619449.1013637.26713431.1.41v8.59c0 .5522847-.4477153 1-1 1h-12c-.5522847 0-1-.4477153-1-1v-16c0-.55228475.4477153-1 1-1h4.59c.1428657-.00136375.2838055.03301182.41.1z" fill="#67b9cc"/><path id="Shape" d="m57.9 8h-6.9c-.5522847 0-1-.44771525-1-1v-6.9c.1092178.04171731.2081389.10652773.29.19l7.42 7.42c.0834723.08186107.1482827.18078223.19.29z" fill="#2fa8cc"/><rect id="Rectangle-path" fill="#f29c1f" height="31" rx="3" width="42" x="8" y="27"/><rect id="Rectangle-path" fill="#d25627" height="5" rx="2.5" width="20" x="19" y="32"/><g fill="#464f5d"><path id="Shape" d="m12 55c-.5522847 0-1-.4477153-1-1v-6c0-.5522847.4477153-1 1-1s1 .4477153 1 1v6c0 .5522847-.4477153 1-1 1z"/><path id="Shape" d="m16 55c-.5522847 0-1-.4477153-1-1v-6c0-.5522847.4477153-1 1-1s1 .4477153 1 1v6c0 .5522847-.4477153 1-1 1z"/><path id="Shape" d="m20 55c-.5522847 0-1-.4477153-1-1v-6c0-.5522847.4477153-1 1-1s1 .4477153 1 1v6c0 .5522847-.4477153 1-1 1z"/></g><rect id="Rectangle-path" fill="#fff" height="6" rx="1" width="8" x="38" y="48"/></g></g></svg>